<?xml version="1.0" encoding="utf-8"?>
<!-- Generator: Adobe Illustrator 25.4.1, SVG Export Plug-In . SVG Version: 6.00 Build 0)  -->
<svg version="1.1" id="Calque_1" xmlns="http://www.w3.org/2000/svg" xmlns:xlink="http://www.w3.org/1999/xlink" x="0px" y="0px"
	 viewBox="0 0 511 511" style="enable-background:new 0 0 511 511;" xml:space="preserve">
<style type="text/css">
	.st0{fill:#444444;}
</style>
<path class="st0" d="M437.2,73.8C388.9,25.6,324.7-1,256.5-1S124.1,25.6,75.8,73.8S1,186.3,1,254.5s26.6,132.4,74.8,180.7
	S188.2,510,256.5,510c68.2,0,132.4-26.6,180.7-74.8c48.3-48.3,74.8-112.4,74.8-180.7S485.4,122.1,437.2,73.8z M256.5,479.9
	c-124.3,0-225.4-101.1-225.4-225.4c0-124.3,101.1-225.4,225.4-225.4s225.4,101.1,225.4,225.4S380.8,479.9,256.5,479.9z"/>
<path class="st0" d="M367,259.2c-8.3,0-15,6.7-15,15c0,52.7-42.8,95.5-95.5,95.5S161,326.9,161,274.2c0-8.3-6.7-15-15-15
	c-8.3,0-15,6.7-15,15c0,69.2,56.3,125.6,125.6,125.6s125.6-56.3,125.6-125.6C382.1,265.9,375.3,259.2,367,259.2z"/>
<path class="st0" d="M145.9,204.2c8.3,0,15-6.7,15-15c0-10.9,8.9-19.8,19.8-19.8c10.9,0,19.8,8.9,19.8,19.8c0,8.3,6.7,15,15,15
	c8.3,0,15-6.7,15-15c0-27.5-22.4-49.9-49.9-49.9c-27.5,0-49.9,22.4-49.9,49.9C130.9,197.5,137.6,204.2,145.9,204.2z"/>
<path class="st0" d="M332.2,139.3c-27.5,0-49.9,22.4-49.9,49.9c0,8.3,6.7,15,15,15s15-6.7,15-15c0-10.9,8.9-19.8,19.8-19.8
	c10.9,0,19.8,8.9,19.8,19.8c0,8.3,6.7,15,15,15s15-6.7,15-15C382.1,161.7,359.7,139.3,332.2,139.3z"/>
</svg>
